<svg version="1.1" id="Layer_1" xmlns="http://www.w3.org/2000/svg" xmlns:xlink="http://www.w3.org/1999/xlink" x="0px" y="0px"
	 width="100%" viewBox="0 0 332 332" enable-background="new 0 0 332 332" xml:space="preserve">
<path fill="#FDFCFC" opacity="0" stroke="none" 
	d="
M1.000000,125.000000 
	C1.000000,83.333344 1.000000,42.166683 1.000000,1.000016 
	C111.666634,1.000011 222.333267,1.000011 332.999939,1.000005 
	C332.999939,111.666618 332.999939,222.333237 332.999969,332.999878 
	C222.333405,332.999939 111.666801,332.999939 1.000100,332.999969 
	C1.000000,263.833344 1.000000,194.666672 1.000000,125.000000 
M150.562469,319.776031 
	C160.370789,319.803375 170.179123,319.830688 180.829865,319.955322 
	C182.638428,319.702423 184.444611,319.430878 186.255905,319.199310 
	C227.379272,313.942108 261.562805,295.570587 286.503296,262.535675 
	C324.607880,212.064377 331.532043,156.850128 302.637177,100.266144 
	C276.544159,49.169003 232.125824,23.628998 175.058548,20.061768 
	C168.728867,19.666107 162.352264,20.006374 155.997620,20.039898 
	C155.003418,20.045143 154.000488,20.179976 153.018188,20.350437 
	C148.532654,21.128830 144.034348,21.849894 139.575180,22.760738 
	C130.594925,24.595081 121.289864,25.560171 112.726402,28.597160 
	C56.752090,48.448189 16.612051,105.846169 16.140146,166.954803 
	C15.778793,213.747879 32.993145,253.296494 68.221024,284.220673 
	C91.457359,304.618286 118.963509,316.242462 150.562469,319.776031 
z"/>
<path fill="#7F2D17" opacity="1.000000" stroke="none" 
	d="
M149.877548,319.383881 
	C118.963509,316.242462 91.457359,304.618286 68.221024,284.220673 
	C32.993145,253.296494 15.778793,213.747879 16.140146,166.954803 
	C16.612051,105.846169 56.752090,48.448189 112.726402,28.597160 
	C121.289864,25.560171 130.594925,24.595081 139.575180,22.760738 
	C144.034348,21.849894 148.532654,21.128830 153.018188,20.350437 
	C154.000488,20.179976 155.003418,20.045143 155.997620,20.039898 
	C162.352264,20.006374 168.728867,19.666107 175.058548,20.061768 
	C232.125824,23.628998 276.544159,49.169003 302.637177,100.266144 
	C331.532043,156.850128 324.607880,212.064377 286.503296,262.535675 
	C261.562805,295.570587 227.379272,313.942108 186.255905,319.199310 
	C184.444611,319.430878 182.638428,319.702423 180.086044,319.649750 
	C169.855042,319.007690 160.368195,318.660553 150.879349,318.380402 
	C150.555573,318.370819 150.211929,319.034180 149.877548,319.383881 
M41.488972,119.054153 
	C33.774952,138.792938 30.229715,159.086029 31.861244,180.393082 
	C34.308304,212.350708 46.531742,239.828186 68.015167,263.392426 
	C79.787704,276.305176 94.613068,284.889679 109.841728,292.860260 
	C126.450531,301.553131 144.824432,304.031860 162.965393,306.614105 
	C170.388199,307.670715 178.345078,305.891052 185.940002,304.664642 
	C219.226212,299.289703 248.045441,285.448914 270.223724,259.327087 
	C299.357391,225.013077 310.254974,185.381668 301.124695,141.580139 
	C288.529266,81.154892 238.619934,35.729130 167.984680,34.197544 
	C144.772873,33.694241 123.213318,39.924969 102.718170,51.356159 
	C74.701782,66.982323 54.311935,88.927773 41.488972,119.054153 
z"/>
<path fill="#85382B" opacity="1.000000" stroke="none" 
	d="
M150.220001,319.579956 
	C150.211929,319.034180 150.555573,318.370819 150.879349,318.380402 
	C160.368195,318.660553 169.855042,319.007690 179.664825,319.601074 
	C170.179123,319.830688 160.370789,319.803375 150.220001,319.579956 
z"/>
<path fill="#EAA82F" opacity="1.000000" stroke="none" 
	d="
M41.653923,118.706619 
	C54.311935,88.927773 74.701782,66.982323 102.718170,51.356159 
	C123.213318,39.924969 144.772873,33.694241 167.984680,34.197544 
	C238.619934,35.729130 288.529266,81.154892 301.124695,141.580139 
	C310.254974,185.381668 299.357391,225.013077 270.223724,259.327087 
	C248.045441,285.448914 219.226212,299.289703 185.940002,304.664642 
	C178.345078,305.891052 170.388199,307.670715 162.965393,306.614105 
	C144.824432,304.031860 126.450531,301.553131 109.841728,292.860260 
	C94.613068,284.889679 79.787704,276.305176 68.015167,263.392426 
	C46.531742,239.828186 34.308304,212.350708 31.861244,180.393082 
	C30.229715,159.086029 33.774952,138.792938 41.653923,118.706619 
M180.708420,198.275757 
	C181.462860,198.310913 182.217285,198.346085 182.977814,198.678848 
	C182.977814,198.678848 183.046692,198.968399 182.725250,199.217148 
	C182.803146,199.421417 182.881058,199.625687 182.958969,199.829941 
	C183.284088,199.611877 183.609222,199.393814 184.611313,199.389084 
	C186.658768,205.971664 189.119400,212.459167 190.660950,219.158157 
	C193.248398,230.402008 194.326874,237.558884 180.079025,242.950653 
	C179.771622,243.066986 179.463440,243.212570 179.197845,243.403305 
	C175.093399,246.350906 178.027634,250.174881 178.269501,253.513748 
	C178.339432,254.478897 181.133881,255.973434 182.692337,255.989899 
	C196.137527,256.131836 209.585709,255.991013 223.762543,256.027435 
	C224.495728,255.994171 225.228912,255.960907 226.851395,256.058441 
	C229.245987,256.015228 231.640594,255.972000 234.764328,256.024323 
	C235.497437,255.993057 236.230530,255.961792 237.891525,256.058472 
	C241.054611,256.069000 244.221558,256.180267 247.379608,256.059357 
	C250.070831,255.956299 254.040604,256.686890 253.785919,252.604065 
	C253.547226,248.777542 256.996704,243.349411 250.065628,241.378952 
	C244.107086,239.684998 240.766891,235.168594 239.144989,229.389267 
	C229.516266,195.079269 219.837311,160.782867 210.374969,126.426880 
	C206.008652,110.573555 202.148666,94.581238 197.907074,78.692520 
	C197.386139,76.741096 195.921997,75.041473 194.404099,72.955521 
	C193.927841,72.687111 193.451584,72.418709 192.729568,71.650040 
	C192.146820,71.779831 191.564087,71.909622 190.325485,72.157242 
	C189.884995,72.110817 189.444504,72.064400 188.421234,71.416618 
	C187.777618,71.280151 187.134155,71.025177 186.490387,71.024422 
	C166.991318,71.001526 147.492218,71.001968 127.993134,71.009384 
	C127.345985,71.009628 126.698875,71.120255 126.051750,71.179436 
	C126.373817,71.630569 126.695885,72.081711 126.187813,72.778992 
	C122.304863,73.928253 121.634987,78.940033 125.514847,82.784943 
	C135.215851,84.169807 137.470779,87.543816 135.042099,97.046600 
	C134.877441,97.690819 134.705811,98.334290 134.507050,98.968597 
	C121.079811,141.820801 107.590668,184.653793 94.280983,227.542450 
	C92.218964,234.187027 88.593628,238.918610 82.194748,241.856674 
	C76.162621,244.626343 76.227081,252.155640 82.503769,255.967651 
	C82.503769,255.967651 82.968399,255.913788 83.901001,256.052582 
	C100.610832,256.015594 117.320656,255.978622 134.862915,256.030334 
	C140.554657,255.762619 137.507553,251.576874 138.125931,248.315598 
	C138.059982,247.868729 137.994049,247.421860 137.963226,246.508392 
	C137.963226,246.508392 137.813416,246.065125 137.603271,245.415054 
	C135.827423,244.535950 134.081375,243.589340 132.270477,242.789612 
	C124.917503,239.542389 120.863853,234.046188 122.026199,225.926941 
	C123.101273,218.417358 125.039650,211.033020 126.540192,203.581924 
	C127.241394,200.100006 129.173111,198.360504 133.392426,199.422119 
	C133.854416,199.591614 134.315903,199.907715 134.778473,199.909317 
	C148.922119,199.957642 163.066025,200.003540 177.209305,199.932343 
	C178.136581,199.927673 179.059174,198.990692 180.708420,198.275757 
M255.091141,135.753922 
	C255.833389,131.920181 258.391418,129.907959 261.876587,128.562088 
	C266.095428,126.932892 270.203247,125.016228 275.781372,122.610611 
	C271.653412,121.008827 269.142944,119.555130 266.459778,119.083153 
	C258.304840,117.648674 254.171860,112.910774 252.851944,104.847191 
	C252.050446,99.950798 250.235107,95.220360 248.875244,90.415367 
	C248.432098,90.420120 247.988968,90.424881 247.545837,90.429642 
	C245.844467,96.598572 243.961777,102.724922 242.499603,108.950050 
	C241.349548,113.846359 238.690887,116.711716 233.768646,117.989891 
	C230.069046,118.950577 226.564270,120.661560 222.972763,122.038544 
	C223.023590,122.527916 223.074402,123.017288 223.125229,123.506660 
	C226.827881,125.196037 230.421722,127.209358 234.258881,128.498337 
	C239.916199,130.398727 242.722229,134.202682 244.045105,139.858002 
	C245.104843,144.388351 246.979080,148.728195 248.491837,153.152603 
	C248.923172,153.095779 249.354507,153.038971 249.785843,152.982162 
	C251.490555,147.492722 253.195251,142.003281 255.091141,135.753922 
z"/>
<path fill="#7F2D16" opacity="1.000000" stroke="none" 
	d="
M194.894943,73.225166 
	C195.921997,75.041473 197.386139,76.741096 197.907074,78.692520 
	C202.148666,94.581238 206.008652,110.573555 210.374969,126.426880 
	C219.837311,160.782867 229.516266,195.079269 239.144989,229.389267 
	C240.766891,235.168594 244.107086,239.684998 250.065628,241.378952 
	C256.996704,243.349411 253.547226,248.777542 253.785919,252.604065 
	C254.040604,256.686890 250.070831,255.956299 247.379608,256.059357 
	C244.221558,256.180267 241.054611,256.069000 237.248718,255.755096 
	C235.749008,255.610718 234.892105,255.769745 234.035187,255.928772 
	C231.640594,255.972000 229.245987,256.015228 226.227386,255.753815 
	C224.746582,255.610962 223.889786,255.772736 223.032990,255.934509 
	C209.585709,255.991013 196.137527,256.131836 182.692337,255.989899 
	C181.133881,255.973434 178.339432,254.478897 178.269501,253.513748 
	C178.027634,250.174881 175.093399,246.350906 179.197845,243.403305 
	C179.463440,243.212570 179.771622,243.066986 180.079025,242.950653 
	C194.326874,237.558884 193.248398,230.402008 190.660950,219.158157 
	C189.119400,212.459167 186.658768,205.971664 184.061859,199.183746 
	C183.512421,198.978394 183.046692,198.968399 183.046692,198.968399 
	C183.046692,198.968399 182.977814,198.678848 182.753265,198.152191 
	C182.077545,197.441055 181.626892,197.096710 181.175095,197.095184 
	C165.436050,197.042160 149.696884,197.015778 133.957840,197.042511 
	C133.682770,197.042984 133.408859,197.738190 133.059418,198.274689 
	C132.984421,198.440155 132.805771,198.756531 132.805771,198.756531 
	C129.173111,198.360504 127.241394,200.100006 126.540192,203.581924 
	C125.039650,211.033020 123.101273,218.417358 122.026199,225.926941 
	C120.863853,234.046188 124.917503,239.542389 132.270477,242.789612 
	C134.081375,243.589340 135.827423,244.535950 137.571106,245.835419 
	C137.668655,246.495529 137.798386,246.735260 137.928101,246.974991 
	C137.994049,247.421860 138.059982,247.868729 137.791687,248.903137 
	C136.315109,251.641006 135.172791,253.791321 134.030487,255.941650 
	C117.320656,255.978622 100.610832,256.015594 83.358734,255.832184 
	C82.561623,255.690063 82.306793,255.768326 82.051964,255.846603 
	C76.227081,252.155640 76.162621,244.626343 82.194748,241.856674 
	C88.593628,238.918610 92.218964,234.187027 94.280983,227.542450 
	C107.590668,184.653793 121.079811,141.820801 134.507050,98.968597 
	C134.705811,98.334290 134.877441,97.690819 135.042099,97.046600 
	C137.470779,87.543816 135.215851,84.169807 125.240448,82.097603 
	C125.178932,73.347069 123.793999,74.020630 132.475327,74.010269 
	C151.529251,73.987518 170.583282,74.020897 189.637085,73.965576 
	C191.390411,73.960487 193.142349,73.483192 194.894943,73.225166 
M140.887634,178.966644 
	C152.906128,178.938263 164.924606,178.909897 177.193604,179.255127 
	C177.437317,179.013077 177.681046,178.771027 178.477020,178.027481 
	C178.418274,176.115524 178.745789,174.094131 178.239990,172.308838 
	C173.979385,157.270554 169.470734,142.302383 165.233871,127.257607 
	C162.570419,117.799881 160.245819,108.246735 157.769211,98.736389 
	C149.184464,123.664261 141.652924,148.640411 134.348480,173.682800 
	C133.924652,175.135803 135.343307,177.126236 136.314636,179.421463 
	C137.527130,179.313538 138.739609,179.205612 140.887634,178.966644 
z"/>
<path fill="#7F2D16" opacity="1.000000" stroke="none" 
	d="
M254.995544,136.133881 
	C253.195251,142.003281 251.490555,147.492722 249.785843,152.982162 
	C249.354507,153.038971 248.923172,153.095779 248.491837,153.152603 
	C246.979080,148.728195 245.104843,144.388351 244.045105,139.858002 
	C242.722229,134.202682 239.916199,130.398727 234.258881,128.498337 
	C230.421722,127.209358 226.827881,125.196037 223.125229,123.506660 
	C223.074402,123.017288 223.023590,122.527916 222.972763,122.038544 
	C226.564270,120.661560 230.069046,118.950577 233.768646,117.989891 
	C238.690887,116.711716 241.349548,113.846359 242.499603,108.950050 
	C243.961777,102.724922 245.844467,96.598572 247.545837,90.429642 
	C247.988968,90.424881 248.432098,90.420120 248.875244,90.415367 
	C250.235107,95.220360 252.050446,99.950798 252.851944,104.847191 
	C254.171860,112.910774 258.304840,117.648674 266.459778,119.083153 
	C269.142944,119.555130 271.653412,121.008827 275.781372,122.610611 
	C270.203247,125.016228 266.095428,126.932892 261.876587,128.562088 
	C258.391418,129.907959 255.833389,131.920181 254.995544,136.133881 
z"/>
<path fill="#F6BA31" opacity="1.000000" stroke="none" 
	d="
M127.017952,72.532845 
	C126.695885,72.081711 126.373817,71.630569 126.051750,71.179428 
	C126.698875,71.120255 127.345985,71.009628 127.993134,71.009384 
	C147.492218,71.001968 166.991318,71.001526 186.490387,71.024422 
	C187.134155,71.025177 187.777618,71.280151 188.276886,71.801277 
	C167.761017,72.301567 147.389481,72.417206 127.017952,72.532845 
z"/>
<path fill="#701C12" opacity="1.000000" stroke="none" 
	d="
M126.602882,72.655914 
	C147.389481,72.417206 167.761017,72.301567 188.568283,72.101959 
	C189.444504,72.064400 189.884995,72.110817 190.980820,72.172455 
	C192.082550,72.175217 192.528931,72.162758 192.975327,72.150299 
	C193.451584,72.418709 193.927841,72.687111 194.649521,73.090347 
	C193.142349,73.483192 191.390411,73.960487 189.637085,73.965576 
	C170.583282,74.020897 151.529251,73.987518 132.475327,74.010269 
	C123.793999,74.020630 125.178932,73.347069 124.935966,81.890114 
	C121.634987,78.940033 122.304863,73.928253 126.602882,72.655914 
z"/>
<path fill="#F5BB32" opacity="1.000000" stroke="none" 
	d="
M133.099091,199.089325 
	C132.805771,198.756531 132.984421,198.440155 133.515503,198.326309 
	C149.359039,198.304108 164.671494,198.395752 179.983963,198.487366 
	C179.059174,198.990692 178.136581,199.927673 177.209305,199.932343 
	C163.066025,200.003540 148.922119,199.957642 134.778473,199.909317 
	C134.315903,199.907715 133.854416,199.591614 133.099091,199.089325 
z"/>
<path fill="#6D1811" opacity="1.000000" stroke="none" 
	d="
M180.346191,198.381561 
	C164.671494,198.395752 149.359039,198.304108 133.590485,198.160843 
	C133.408859,197.738190 133.682770,197.042984 133.957840,197.042511 
	C149.696884,197.015778 165.436050,197.042160 181.175095,197.095184 
	C181.626892,197.096710 182.077545,197.441055 182.750229,198.003403 
	C182.217285,198.346085 181.462860,198.310913 180.346191,198.381561 
z"/>
<path fill="#711A13" opacity="1.000000" stroke="none" 
	d="
M134.446701,255.985992 
	C135.172791,253.791321 136.315109,251.641006 137.739014,249.238998 
	C137.507553,251.576874 140.554657,255.762619 134.446701,255.985992 
z"/>
<path fill="#701812" opacity="1.000000" stroke="none" 
	d="
M223.397766,255.980972 
	C223.889786,255.772736 224.746582,255.610962 225.782745,255.688416 
	C225.228912,255.960907 224.495728,255.994171 223.397766,255.980972 
z"/>
<path fill="#701812" opacity="1.000000" stroke="none" 
	d="
M234.399750,255.976547 
	C234.892105,255.769745 235.749008,255.610718 236.784790,255.691101 
	C236.230530,255.961792 235.497437,255.993057 234.399750,255.976547 
z"/>
<path fill="#F5BB32" opacity="1.000000" stroke="none" 
	d="
M182.885971,199.092773 
	C183.046692,198.968399 183.512421,198.978394 183.723389,199.077057 
	C183.609222,199.393814 183.284088,199.611877 182.958969,199.829956 
	C182.881058,199.625687 182.803146,199.421417 182.885971,199.092773 
z"/>
<path fill="#F6BA31" opacity="1.000000" stroke="none" 
	d="
M192.852448,71.900169 
	C192.528931,72.162758 192.082550,72.175217 191.308746,72.113541 
	C191.564087,71.909622 192.146820,71.779831 192.852448,71.900169 
z"/>
<path fill="#711A13" opacity="1.000000" stroke="none" 
	d="
M137.945663,246.741699 
	C137.798386,246.735260 137.668655,246.495529 137.676178,246.160461 
	C137.813416,246.065125 137.963226,246.508392 137.945663,246.741699 
z"/>
<path fill="#711A13" opacity="1.000000" stroke="none" 
	d="
M82.277863,255.907135 
	C82.306793,255.768326 82.561623,255.690063 82.892426,255.762787 
	C82.968399,255.913788 82.503769,255.967651 82.277863,255.907135 
z"/>
<path fill="#EAA82F" opacity="1.000000" stroke="none" 
	d="
M176.943100,178.881516 
	C164.924606,178.909897 152.906128,178.938263 140.018890,178.984390 
	C138.068283,178.956940 136.986389,178.911743 135.904510,178.866562 
	C135.343307,177.126236 133.924652,175.135803 134.348480,173.682800 
	C141.652924,148.640411 149.184464,123.664261 157.769211,98.736389 
	C160.245819,108.246735 162.570419,117.799881 165.233871,127.257607 
	C169.470734,142.302383 173.979385,157.270554 178.239990,172.308838 
	C178.745789,174.094131 178.418274,176.115524 177.947937,178.346619 
	C177.260254,178.737671 177.101685,178.809601 176.943100,178.881516 
z"/>
<path fill="#701A11" opacity="1.000000" stroke="none" 
	d="
M136.109573,179.144012 
	C136.986389,178.911743 138.068283,178.956940 139.551132,179.049896 
	C138.739609,179.205612 137.527130,179.313538 136.109573,179.144012 
z"/>
<path fill="#701A11" opacity="1.000000" stroke="none" 
	d="
M177.068359,179.068329 
	C177.101685,178.809601 177.260254,178.737671 177.671799,178.597351 
	C177.681046,178.771027 177.437317,179.013077 177.068359,179.068329 
z"/>
</svg>